<svg version="1.2" baseProfile="tiny" viewBox="0 0 16.0 16.0" xmlns:xlink="http://www.w3.org/1999/xlink" xmlns="http://www.w3.org/2000/svg">
<path style="fill:#ffffff;" d="M13.5851 8.959C13.0681 8.5905 12.9951 7.52 12.9181 6.3865C12.9106 6.28 12.9036 6.101 12.8956 5.9025L12.8926 5.8405C12.8786 5.4955 12.8626 5.104 12.8456 4.933C12.8211 4.4895 12.7471 4.045 12.6196 3.575L12.5736 3.3985C12.5551 3.3185 12.5361 3.248 12.5011 3.146C12.4646 3.0445 12.4256 2.945 12.3886 2.861C12.3446 2.75 12.2936 2.6385 12.2326 2.518L12.2046 2.4685C12.1261 2.3195 12.0516 2.196 11.9786 2.0915C11.8046 1.829 11.5906 1.5825 11.3046 1.3155L11.2226 1.2425C11.0301 1.0705 10.8206 0.9165 10.5621 0.7545C10.5316 0.7345 10.5011 0.7155 10.4716 0.6985C10.3761 0.6435 10.2706 0.589 10.1401 0.5275C10.0561 0.488 9.97055 0.4515 9.88555 0.417C9.52005 0.268 9.13105 0.1575 8.72905 0.089C8.61105 0.0695 8.49055 0.0545 8.32205 0.0355C8.27905 0.03 8.23555 0.025 8.19255 0.0215C8.06405 0.0105 7.92505 0.004 7.72555 0C7.52855 0.004 7.38955 0.0105 7.26055 0.021C7.21755 0.0245 7.17455 0.0295 7.13205 0.035C6.96305 0.054 6.84205 0.069 6.72455 0.0885C6.32205 0.1575 5.93305 0.268 5.56805 0.4165C5.48305 0.451 5.39705 0.4875 5.31305 0.527C5.18105 0.5895 5.07555 0.644 4.98155 0.698C4.95255 0.7155 4.92255 0.7345 4.89005 0.756C4.63205 0.917 4.42255 1.0715 4.23105 1.2425L4.14755 1.316C3.86355 1.5815 3.65005 1.828 3.47555 2.09C3.40255 2.195 3.32855 2.3185 3.24955 2.467L3.22055 2.519C3.16305 2.6325 3.11055 2.7475 3.06605 2.8585C3.02755 2.9475 2.98805 3.0465 2.95355 3.146C2.91555 3.2545 2.89755 3.327 2.88105 3.3965L2.83455 3.5745C2.70705 4.0455 2.63305 4.4895 2.60855 4.9305C2.59105 5.1045 2.57505 5.4955 2.56105 5.8405L2.56005 5.8655C2.55105 6.079 2.54355 6.2735 2.53555 6.387C2.45855 7.52 2.38605 8.59 1.86805 8.9595C-0.204946 10.4355 5.35464e-05 12.856 0.0100535 12.9565C0.0525535 13.404 0.410554 13.517 0.843054 13.517H4.63555C4.89205 14.925 6.17855 16 7.72655 16C9.27455 16 10.5611 14.925 10.8176 13.517H14.6106C15.0431 13.517 15.4011 13.404 15.4436 12.9565C15.4536 12.856 15.6591 10.4365 13.5851 8.959ZM7.72655 15.13C6.66455 15.13 5.77755 14.441 5.53055 13.517H9.92255C9.67555 14.441 8.78905 15.13 7.72655 15.13ZM14.5561 12.6115H0.897054C0.879554 12.6115 0.870054 10.7135 2.37555 9.641C3.24855 9.0195 3.33605 7.7765 3.42955 6.412C3.43805 6.287 3.44705 6.092 3.45605 5.858L3.45905 5.7875C3.47155 5.479 3.48505 5.165 3.50105 4.999C3.52405 4.5965 3.58455 4.2365 3.69655 3.824L3.71355 3.7595C3.72505 3.7195 3.73505 3.679 3.74505 3.6375L3.75505 3.5985C3.76255 3.566 3.77005 3.534 3.78055 3.504C3.82055 3.3905 3.85155 3.3115 3.88755 3.229C3.92705 3.131 3.96705 3.0435 4.01155 2.9555C4.08555 2.8185 4.14105 2.721 4.20655 2.6265C4.34555 2.4185 4.51655 2.222 4.74455 2.009L4.78605 1.9725C4.95805 1.8195 5.12555 1.694 5.31255 1.5775L5.41405 1.5125C5.51105 1.4575 5.61055 1.409 5.68605 1.373C5.75405 1.3405 5.82455 1.3115 5.89505 1.2825C6.20355 1.1565 6.53105 1.0635 6.86905 1.0065C6.97055 0.9895 7.07455 0.977 7.17905 0.9655L7.33205 0.9475C7.44755 0.938 7.57055 0.9325 7.71905 0.93H7.73555C7.88405 0.9325 8.00705 0.9375 8.12055 0.947L8.27605 0.9655C8.38005 0.9765 8.48405 0.9895 8.58555 1.0065C8.92305 1.0635 9.25105 1.1565 9.55905 1.2825C9.62905 1.311 9.70055 1.3405 9.76805 1.373C9.85005 1.412 9.94705 1.459 10.0376 1.511L10.1426 1.5775C10.3296 1.6935 10.4961 1.819 10.6681 1.972L10.7081 2.0075C10.9376 2.2215 11.1086 2.418 11.2481 2.6265C11.3111 2.7185 11.3671 2.816 11.4416 2.9535C11.4856 3.04 11.5256 3.1275 11.5666 3.2295C11.6031 3.313 11.6346 3.3945 11.6726 3.503C11.6836 3.5325 11.6906 3.565 11.6986 3.5975L11.7041 3.621C11.7156 3.6675 11.7266 3.7145 11.7391 3.758L11.7561 3.8265C11.8696 4.2405 11.9296 4.6035 11.9521 5.006C11.9676 5.1615 11.9801 5.462 11.9921 5.7535L11.9976 5.8785C12.0066 6.1125 12.0151 6.328 12.0236 6.4535C12.1166 7.816 12.2036 9.0185 13.0776 9.6405C14.5776 10.7095 14.5726 12.6115 14.5561 12.6115Z"/>
</svg>