<svg version="1.2" baseProfile="tiny" viewBox="0 0 16.0 16.0" xmlns:xlink="http://www.w3.org/1999/xlink" xmlns="http://www.w3.org/2000/svg">
<path style="fill:#ffffff;" d="M5.53056 13.517C5.77756 14.441 6.66456 15.13 7.72656 15.13C8.78906 15.13 9.67556 14.441 9.92256 13.517H5.53056Z M0.897061 12.6115H14.5561C14.5726 12.6115 14.5776 10.7095 13.0776 9.64049C12.2036 9.01849 12.1166 7.81599 12.0236 6.45349C12.0151 6.32799 12.0066 6.11249 11.9976 5.87849L11.9921 5.75349C11.9801 5.46199 11.9676 5.16149 11.9521 5.00599C11.9296 4.60349 11.8696 4.24049 11.7561 3.82649L11.7391 3.75799C11.7292 3.72357 11.7202 3.68696 11.7112 3.65013C11.7088 3.64042 11.7065 3.6307 11.7041 3.62099L11.6986 3.59749C11.6972 3.59181 11.6958 3.58613 11.6944 3.58046C11.688 3.55372 11.6816 3.52734 11.6726 3.50299C11.6346 3.39449 11.6031 3.31299 11.5666 3.22949C11.5256 3.12749 11.4856 3.03999 11.4416 2.95349C11.3671 2.81599 11.3111 2.71849 11.2481 2.62649C11.1086 2.41799 10.9376 2.22149 10.7081 2.00749L10.6681 1.97199C10.4961 1.81899 10.3296 1.69349 10.1426 1.57749L10.0376 1.51099C9.94706 1.45899 9.85006 1.41199 9.76806 1.37299C9.70056 1.34049 9.62906 1.31099 9.55906 1.28249C9.25106 1.15649 8.92306 1.06349 8.58556 1.00649C8.48406 0.989493 8.38006 0.976493 8.27606 0.965493L8.12056 0.946993C8.00706 0.937493 7.88406 0.932493 7.73556 0.929993H7.71906C7.57056 0.932493 7.44756 0.937993 7.33206 0.947493L7.17906 0.965493C7.07456 0.976993 6.97056 0.989493 6.86906 1.00649C6.53106 1.06349 6.20356 1.15649 5.89506 1.28249C5.82456 1.31149 5.75406 1.34049 5.68606 1.37299C5.61056 1.40899 5.51106 1.45749 5.41406 1.51249L5.31256 1.57749C5.12556 1.69399 4.95806 1.81949 4.78606 1.97249L4.74456 2.00899C4.51656 2.22199 4.34556 2.41849 4.20656 2.62649C4.14106 2.72099 4.08556 2.81849 4.01156 2.95549C3.96706 3.04349 3.92706 3.13099 3.88756 3.22899C3.85156 3.31149 3.82056 3.39049 3.78056 3.50399C3.77006 3.53399 3.76256 3.56599 3.75506 3.59849L3.74506 3.63749C3.73506 3.67899 3.72506 3.71949 3.71356 3.75949L3.69656 3.82399C3.58456 4.23649 3.52406 4.59649 3.50106 4.99899C3.48506 5.16499 3.47156 5.47899 3.45906 5.78749L3.45606 5.85799C3.44706 6.09199 3.43806 6.28699 3.42956 6.41199C3.33606 7.77649 3.24856 9.01949 2.37556 9.64099C0.870061 10.7135 0.879561 12.6115 0.897061 12.6115Z"/>
</svg>